<?xml version="1.0" encoding="UTF-8" standalone="no"?>
<!DOCTYPE svg PUBLIC "-//W3C//DTD SVG 1.1//EN"
 "http://www.w3.org/Graphics/SVG/1.1/DTD/svg11.dtd">
<!-- Generated by graphviz version 2.49.3 (0)
 -->
<!-- Pages: 1 -->
<svg width="99pt" height="248pt"
 viewBox="0.00 0.00 99.00 248.00" xmlns="http://www.w3.org/2000/svg" xmlns:xlink="http://www.w3.org/1999/xlink">
<g id="graph0" class="graph" transform="scale(1 1) rotate(0) translate(4 244)">
<polygon fill="white" stroke="transparent" points="-4,4 -4,-244 95,-244 95,4 -4,4"/>
<!-- 00 -->
<g id="node1" class="node">
<title>00</title>
<ellipse fill="none" stroke="black" cx="27" cy="-222" rx="27" ry="18"/>
<text text-anchor="middle" x="27" y="-218.3" font-family="Times,serif" font-size="14.00">00</text>
</g>
<!-- 10 -->
<g id="node2" class="node">
<title>10</title>
<ellipse fill="none" stroke="black" cx="27" cy="-120" rx="27" ry="18"/>
<text text-anchor="middle" x="27" y="-116.3" font-family="Times,serif" font-size="14.00">10</text>
</g>
<!-- 00&#45;&gt;10 -->
<g id="edge1" class="edge">
<title>00&#45;&gt;10</title>
<path fill="none" stroke="black" d="M27,-203.58C27,-188.38 27,-166.07 27,-148.46"/>
<polygon fill="black" stroke="black" points="30.5,-148.22 27,-138.22 23.5,-148.22 30.5,-148.22"/>
<text text-anchor="middle" x="38" y="-174.8" font-family="Times,serif" font-size="14.00"> 0/0</text>
<text text-anchor="middle" x="38" y="-159.8" font-family="Times,serif" font-size="14.00">1/0</text>
</g>
<!-- 10&#45;&gt;10 -->
<g id="edge3" class="edge">
<title>10&#45;&gt;10</title>
<path fill="none" stroke="black" d="M50.61,-129.15C61.97,-130.28 72,-127.23 72,-120 72,-115.14 67.47,-112.18 61.06,-111.09"/>
<polygon fill="black" stroke="black" points="60.69,-107.58 50.61,-110.85 60.53,-114.58 60.69,-107.58"/>
<text text-anchor="middle" x="81.5" y="-116.3" font-family="Times,serif" font-size="14.00">0/0</text>
</g>
<!-- 01 -->
<g id="node3" class="node">
<title>01</title>
<ellipse fill="none" stroke="black" cx="27" cy="-18" rx="27" ry="18"/>
<text text-anchor="middle" x="27" y="-14.3" font-family="Times,serif" font-size="14.00">01</text>
</g>
<!-- 10&#45;&gt;01 -->
<g id="edge2" class="edge">
<title>10&#45;&gt;01</title>
<path fill="none" stroke="black" d="M15.77,-103.38C12.24,-97.58 8.8,-90.76 7,-84 3.58,-71.11 3.58,-66.89 7,-54 7.93,-50.51 9.29,-47.01 10.88,-43.64"/>
<polygon fill="black" stroke="black" points="14.08,-45.07 15.77,-34.62 7.93,-41.74 14.08,-45.07"/>
<text text-anchor="middle" x="16.5" y="-65.3" font-family="Times,serif" font-size="14.00">1/0</text>
</g>
<!-- 01&#45;&gt;10 -->
<g id="edge4" class="edge">
<title>01&#45;&gt;10</title>
<path fill="none" stroke="black" d="M27,-36.22C27,-51.36 27,-73.66 27,-91.3"/>
<polygon fill="black" stroke="black" points="23.5,-91.58 27,-101.58 30.5,-91.58 23.5,-91.58"/>
<text text-anchor="middle" x="38" y="-72.8" font-family="Times,serif" font-size="14.00"> 0/0</text>
<text text-anchor="middle" x="38" y="-57.8" font-family="Times,serif" font-size="14.00">1/1</text>
</g>
</g>
</svg>
